<?xml version="1.0" encoding="UTF-8" standalone="no"?>
<svg
  version="1.1"
  viewBox="0 0 676.40674 605.2929"
  height="605.29291"
  width="676.40674"
  xmlns="http://www.w3.org/2000/svg"
>
  <g
    transform="translate(-126.18135,-112.35007)">
    <path
      style="fill:#2a5498;fill-opacity:1;stroke:#2a5498;stroke-width:3;stroke-linecap:butt;stroke-linejoin:round;stroke-miterlimit:4;stroke-dasharray:none;stroke-opacity:1;paint-order:normal"
      d="m 132.68135,207.62353 44.22712,-12.68193 353.81694,49.72573 v 94.48819 l -44.22712,12.68192 v -94.48819 z"
    />
    <path
      style="fill:#2a5498;fill-opacity:1;stroke:#2a5498;stroke-width:3;stroke-linecap:butt;stroke-linejoin:round;stroke-miterlimit:4;stroke-dasharray:none;stroke-opacity:1;paint-order:normal"
      d="m 353.81694,333.19029 44.22712,6.21572 v 359.05511 l -44.22712,12.68193 z"
    />
    <path
      style="fill:none;fill-opacity:1;stroke:#2a5498;stroke-width:3;stroke-linecap:butt;stroke-linejoin:round;stroke-miterlimit:4;stroke-dasharray:none;stroke-opacity:1;paint-order:normal"
      d="M 353.81694,711.14305 265.3627,698.71161 V 320.75886 L 132.68135,302.11171 v -94.48818"
    />
    <path
      style="fill:none;fill-opacity:1;stroke:#2a5498;stroke-width:3;stroke-linecap:butt;stroke-linejoin:round;stroke-miterlimit:4;stroke-dasharray:none;stroke-opacity:1;paint-order:normal"
      d="m 398.04406,339.40601 88.45423,12.43143"
    />
    <path
      style="fill:#2a5498;fill-opacity:1;stroke:#2a5498;stroke-width:3;stroke-linecap:butt;stroke-linejoin:round;stroke-miterlimit:4;stroke-dasharray:none;stroke-opacity:1;paint-order:normal"
      d="m 398.04406,131.532 44.22711,-12.68193 353.81694,49.72573 v 94.48819 l -44.22712,12.68192 v -94.48819 z"
    />
    <path
      style="fill:none;fill-opacity:1;stroke:#2a5498;stroke-width:3;stroke-linecap:butt;stroke-linejoin:round;stroke-miterlimit:4;stroke-dasharray:none;stroke-opacity:1;paint-order:normal"
      d="m 398.04406,131.532 v 94.48818"
    />
    <path
      style="fill:#2a5498;fill-opacity:1;stroke:#2a5498;stroke-width:3;stroke-linecap:butt;stroke-linejoin:round;stroke-miterlimit:4;stroke-dasharray:none;stroke-opacity:1;paint-order:normal"
      d="M 663.40676,508.98377 V 263.31448 l -44.22712,-6.21572 v 245.66929 c 0,0 0,94.48819 -88.45423,119.85203 132.68135,-38.04577 132.68135,-113.63631 132.68135,-113.63631 z"
    />
    <path
      style="fill:none;fill-opacity:1;stroke:#2a5498;stroke-width:3;stroke-linecap:butt;stroke-linejoin:round;stroke-miterlimit:4;stroke-dasharray:none;stroke-opacity:1;paint-order:normal"
      d="m 663.40676,263.31448 88.45423,12.43143"
    />
  </g>
</svg>
