<?xml version="1.0" encoding="UTF-8"?>
<svg width="512" height="512" version="1.1" viewBox="0 0 512 512" xmlns="http://www.w3.org/2000/svg">
<g transform="translate(0 -161.53)">
<path d="m52.667 173.53c-11.265 0-40.667 29.403-40.667 40.667v406.67c0 11.265 29.402 40.667 40.667 40.667h406.67c11.265 0 40.667-29.403 40.667-40.667v-406.67c0-11.265-29.403-40.667-40.667-40.667h-406.67zm162.53 45.592h81.603c3.7674 0 13.601 14.049 13.601 19.432v18.291c0 4.3872-6.8154 17.364-9.6004 18.579-2.785 1.215-14.01 2.786 0 55.624 14.01 52.838 128.82 225.85 134.95 236.58 6.121 10.732-15.302 48.296-27.545 48.299-12.243 3e-3 -292.16 3e-3 -304.41 0-12.243-3e-3 -33.666-37.567-27.545-48.299 6.121-10.732 120.94-183.74 134.95-236.58 14.01-52.838 2.785-54.409 0-55.624s-9.6004-14.192-9.6004-18.579v-18.291c0-5.3828 9.8332-19.432 13.601-19.432z" style="fill:#61d43a;stroke-width:0"/>
</g>
</svg>
